name analog
datacolumns 19
datarows 28
range 0.4395 0.453
endheader
time	ground_force_vx	ground_force_vy	ground_force_vz	ground_force_px	ground_force_py	ground_force_pz	l_ground_force_vx	l_ground_force_vy	l_ground_force_vz	l_ground_force_px	l_ground_force_py	l_ground_force_pz	ground_torque_x	ground_torque_y	ground_torque_z	l_ground_torque_x	l_ground_torque_y	l_ground_torque_z
0.4395	-0.0	-0.0	-0.0	-5.352630615234375	33.513031005859375	-174.7914581298828	3.1211228370666504	-43.43022155761719	-210.0630645751953	-0.0	-0.0	-0.0	-0.0	-0.0	-0.0	52129.79296875	-7452.79248046875	-305.45196533203125
0.44	-0.0	-0.0	-0.0	-4.395702838897705	33.140480041503906	-169.97610473632812	4.112734317779541	-43.165184020996094	-207.04690551757807	-0.0	-0.0	-0.0	-0.0	-0.0	-0.0	51807.046875	-7287.76806640625	180.65847778320312
0.4405	-0.0	-0.0	-0.0	-3.528114080429077	31.714582443237305	-167.05410766601562	5.653195858001709	-42.54686737060547	-204.69845581054688	-0.0	-0.0	-0.0	-0.0	-0.0	-0.0	51111.24609375	-7383.4189453125	599.910888671875
0.441	-0.0	-0.0	-0.0	-2.7655258178710938	31.12211799621582	-162.27723693847656	7.09686279296875	-42.69916534423828	-201.84417724609372	-0.0	-0.0	-0.0	-0.0	-0.0	-0.0	50565.125	-7616.0361328125	1045.8079833984375
0.4415	-0.0	-0.0	-0.0	-1.7195934057235718	29.77245140075684	-160.7942352294922	8.42752456665039	-42.98833465576172	-200.54473876953125	-0.0	-0.0	-0.0	-0.0	-0.0	-0.0	50231.921875	-7759.5341796875	1481.296142578125
0.442	-0.0	-0.0	-0.0	-1.9285151958465576	29.323902130126957	-157.10484313964844	9.916977882385254	-43.557716369628906	-199.5584716796875	-0.0	-0.0	-0.0	-0.0	-0.0	-0.0	49980.34765625	-7725.68115234375	2001.8343505859373
0.4425	-0.0	-0.0	-0.0	-0.8673620820045471	28.86328125	-153.8085174560547	10.443288803100586	-44.23427200317383	-199.8114776611328	-0.0	-0.0	-0.0	-0.0	-0.0	-0.0	50013.8515625	-8077.9931640625	2366.0966796875
0.443	-0.0	-0.0	-0.0	-1.070526123046875	28.47215843200684	-152.96656799316406	11.078968048095703	-45.176490783691406	-200.1219940185547	-0.0	-0.0	-0.0	-0.0	-0.0	-0.0	50084.74609375	-8372.61328125	2628.261962890625
0.4435	-0.0	-0.0	-0.0	-0.8320334553718567	28.27919578552246	-149.22207641601562	11.01030731201172	-46.21685791015625	-200.76217651367188	-0.0	-0.0	-0.0	-0.0	-0.0	-0.0	50040.25	-8524.724609375	2924.565673828125
0.444	-0.0	-0.0	-0.0	-0.827850878238678	28.728647232055664	-149.55068969726562	11.468486785888672	-46.520843505859375	-200.8749237060547	-0.0	-0.0	-0.0	-0.0	-0.0	-0.0	50313.640625	-8790.0234375	3061.3154296875
0.4445	-0.0	-0.0	-0.0	-0.524392306804657	29.4738883972168	-148.3355712890625	11.315988540649414	-47.59470748901367	-202.55015563964844	-0.0	-0.0	-0.0	-0.0	-0.0	-0.0	50516.76171875	-8914.2080078125	3191.3623046875
0.445	-0.0	-0.0	-0.0	-0.354107141494751	30.089828491210938	-148.3906707763672	11.41875457763672	-47.6220817565918	-202.7154998779297	-0.0	-0.0	-0.0	-0.0	-0.0	-0.0	51017.45703125	-8988.1650390625	3399.05126953125
0.4455	-0.0	-0.0	-0.0	-0.418608546257019	30.190065383911133	-149.7935791015625	11.709823608398438	-47.340423583984375	-204.8535919189453	-0.0	-0.0	-0.0	-0.0	-0.0	-0.0	51399.45703125	-9389.640625	3458.635986328125
0.446	-0.0	-0.0	-0.0	0.1919286698102951	31.081298828125	-152.01370239257812	11.948966979980469	-46.53400039672852	-207.19869995117188	-0.0	-0.0	-0.0	-0.0	-0.0	-0.0	52224.73828125	-9690.623046875	3339.6904296875
0.4465	-0.0	-0.0	-0.0	-0.1024850457906723	31.870132446289062	-154.84556579589844	11.65952491760254	-45.750633239746094	-210.0902862548828	-0.0	-0.0	-0.0	-0.0	-0.0	-0.0	53607.04296875	-10104.5537109375	3420.881103515625
0.447	-0.0	-0.0	-0.0	0.2807143330574035	32.48110580444336	-158.62957763671875	11.139273643493652	-45.25882339477539	-215.7242431640625	-0.0	-0.0	-0.0	-0.0	-0.0	-0.0	55253.65234375	-10290.1259765625	3195.77197265625
0.4475	-0.0	-0.0	-0.0	1.134287714958191	32.812843322753906	-164.07699584960938	10.961997985839844	-44.60245513916016	-219.96551513671875	-0.0	-0.0	-0.0	-0.0	-0.0	-0.0	56690.8203125	-10922.4013671875	3073.072265625
0.448	-0.0	-0.0	-0.0	1.580264449119568	33.56403350830078	-171.99862670898438	10.607305526733398	-44.148170471191406	-227.8464813232422	-0.0	-0.0	-0.0	-0.0	-0.0	-0.0	58321.7265625	-11272.61328125	2818.671875
0.4485	-0.0	-0.0	-0.0	2.230262756347656	33.74172592163086	-178.50643920898438	10.125466346740724	-43.83232116699219	-234.6788330078125	-0.0	-0.0	-0.0	-0.0	-0.0	-0.0	60704.25390625	-11671.869140625	2699.654052734375
0.449	-0.0	-0.0	-0.0	2.396472930908203	34.48002243041992	-186.57568359375	9.606266975402832	-43.60552215576172	-242.95718383789065	-0.0	-0.0	-0.0	-0.0	-0.0	-0.0	63017.75	-12612.19921875	2487.535400390625
0.4495	-0.0	-0.0	-0.0	2.46014404296875	34.861995697021484	-194.6564178466797	9.340197563171388	-43.4797248840332	-250.436279296875	-0.0	-0.0	-0.0	-0.0	-0.0	-0.0	64930.51171875	-13073.6259765625	2440.616943359375
0.45	-0.0	-0.0	-0.0	2.3312785625457764	35.588809967041016	-204.5379180908203	8.668020248413086	-43.81930923461914	-258.71337890625	-0.0	-0.0	-0.0	-0.0	-0.0	-0.0	67425.5859375	-13623.1220703125	2029.3345947265625
0.4505	-0.0	-0.0	-0.0	2.155359268188477	35.893699645996094	-212.87586975097656	7.806549072265625	-44.41429138183594	-266.05352783203125	-0.0	-0.0	-0.0	-0.0	-0.0	-0.0	69397.09375	-14043.8095703125	1892.769287109375
0.451	-0.0	-0.0	-0.0	1.8993645906448364	36.89998626708984	-223.6529998779297	7.1340179443359375	-45.05538940429688	-273.4305114746094	-0.0	-0.0	-0.0	-0.0	-0.0	-0.0	71307.5546875	-14668.30859375	1803.1361083984373
0.4515	-0.0	-0.0	-0.0	2.6094257831573486	37.5870361328125	-233.3784942626953	7.211423873901367	-45.371612548828125	-280.514404296875	-0.0	-0.0	-0.0	-0.0	-0.0	-0.0	73514.6015625	-15127.4619140625	1850.0631103515625
0.452	-0.0	-0.0	-0.0	2.613197088241577	38.87178039550781	-244.6936798095703	7.551351547241211	-45.76152420043945	-286.143310546875	-0.0	-0.0	-0.0	-0.0	-0.0	-0.0	75267.484375	-15599.2978515625	2133.21435546875
0.4525	-0.0	-0.0	-0.0	3.211578369140625	39.217376708984375	-256.0794982910156	8.083426475524902	-46.17706680297852	-292.3421936035156	-0.0	-0.0	-0.0	-0.0	-0.0	-0.0	76991.9375	-16242.365234375	2285.3369140625
0.453	-0.0	-0.0	-0.0	3.8098182678222656	40.884647369384766	-264.92657470703125	8.072681427001953	-46.950721740722656	-297.82635498046875	-0.0	-0.0	-0.0	-0.0	-0.0	-0.0	78378.234375	-16399.193359375	2375.655517578125
